<svg width="70" height="78" viewBox="0 0 70 78" fill="none" xmlns="http://www.w3.org/2000/svg">
<path d="M52.8643 44.6809C51.7357 41.0309 50.2928 37.5095 48.5143 34.1024C48.5143 34.0952 48.5071 34.0881 48.5071 34.0809C48.05 33.2024 47.5714 32.3238 47.0714 31.4595C44.6357 27.2524 41.7643 23.3809 38.4643 19.8452C35.1715 16.3095 31.6428 13.4524 27.8928 11.2881C24.3 9.21664 20.9143 8.0095 17.7358 7.68093C17.6001 7.6595 17.4571 7.65236 17.3214 7.63807C14.5 7.40236 11.9929 7.78093 9.80005 8.77379L8.71434 9.31664C6.27862 10.7095 4.3429 12.8809 2.92147 15.8452C1.50005 18.8095 0.785767 22.4452 0.785767 26.7452C0.785767 31.0452 1.50005 35.5024 2.92147 40.1095C4.3429 44.7166 6.27862 49.1238 8.71434 53.3309C11.1572 57.5381 14.0214 61.4095 17.3214 64.9524C20.6214 68.4881 24.1428 71.3379 27.8928 73.5021C31.6428 75.6664 35.1715 76.8879 38.4643 77.1593C41.7643 77.4307 44.6357 76.8664 47.0714 75.4807C49.2214 74.2521 50.9714 72.4236 52.3286 69.9738C52.5143 69.6452 52.6928 69.3024 52.8643 68.9452C54.2928 65.9809 55 62.3524 55 58.0452C55 53.7381 54.2928 49.2881 52.8643 44.6809ZM15.35 24.2952C15.4071 24.2452 15.4643 24.2095 15.5286 24.1738C16.3143 23.7238 17.2786 23.8238 18.4071 24.4738C19.5357 25.1309 20.5 26.1381 21.2857 27.5024C22.0786 28.8666 22.4715 30.1952 22.4715 31.4881C22.4715 32.7809 22.0786 33.6595 21.2857 34.1095C20.5 34.5595 19.5357 34.4595 18.4071 33.8095C17.9786 33.5595 17.5715 33.2595 17.1858 32.9095C16.5643 32.3309 16.0143 31.6238 15.5286 30.7881C14.7357 29.4238 14.3429 28.0881 14.3429 26.7952C14.3429 25.6024 14.6786 24.7666 15.35 24.2952ZM40.0928 63.7095C39.8071 64.2166 39.3858 64.3809 38.8215 64.1952H38.8143C38.6643 64.1524 38.5 64.0738 38.3286 63.9738C37.9714 63.7666 37.6428 63.4881 37.35 63.1381C37.3214 63.1024 37.2928 63.0666 37.2643 63.0309C37.0071 62.7024 36.8 62.3309 36.6357 61.9095C35.6 59.7024 34.3071 57.7024 32.7714 55.9095C31.2357 54.1095 29.6143 52.7166 27.8928 51.7309C27.2286 51.3452 26.5858 51.0381 25.9501 50.8166C24.9358 50.4381 23.9572 50.2595 23.0143 50.2738C22.0858 50.2881 21.2501 50.4809 20.5072 50.8524L20.4358 50.8881C19.9715 51.1309 19.5429 51.4381 19.1501 51.8166C18.9286 52.0452 18.6643 52.1666 18.3715 52.1809C18.0786 52.1952 17.7501 52.0952 17.3929 51.8881C16.5786 51.4166 15.9928 50.6595 15.6286 49.6238C15.2643 48.5881 15.3357 47.7952 15.8286 47.2524C17.1428 45.6738 18.8714 44.8952 21.0143 44.9166C21.45 44.9166 21.8928 44.9524 22.3428 45.0166C24.1071 45.2595 25.95 45.9381 27.8928 47.0595C27.9143 47.0738 27.9428 47.0881 27.9643 47.1024C30.3286 48.4809 32.5786 50.3738 34.7072 52.7809C36.8501 55.2166 38.5786 57.9524 39.8929 60.9881C40.3858 62.1524 40.4571 63.0595 40.0928 63.7095ZM41.1571 44.0595C40.9571 44.5024 40.6643 44.8381 40.2643 45.0666C39.4714 45.5166 38.5143 45.4166 37.3858 44.7666C36.7572 44.4024 36.1858 43.9381 35.6786 43.3595C35.2429 42.8881 34.8571 42.3524 34.5 41.7381C33.7643 40.4666 33.3714 39.2238 33.3286 38.0166C33.3143 37.9309 33.3143 37.8381 33.3143 37.7524C33.3143 36.4524 33.7143 35.5809 34.5 35.1309C35.2928 34.6809 36.2501 34.7809 37.3858 35.4309C38.5143 36.0809 39.4714 37.0952 40.2643 38.4595C40.3857 38.6738 40.5001 38.8809 40.6001 39.0952C41.1643 40.2309 41.45 41.3524 41.45 42.4452C41.45 43.0881 41.35 43.6238 41.1571 44.0595Z" fill="#E3DEDA"/>
<path d="M41.45 42.4453C41.45 43.0881 41.35 43.6239 41.1572 44.0596C40.9572 44.5024 40.6643 44.8381 40.2643 45.0666C39.4715 45.5166 38.5144 45.4167 37.3858 44.7667C36.7573 44.4024 36.1858 43.9381 35.6787 43.3595C35.243 42.8881 34.8572 42.3524 34.5 41.7381C33.7643 40.4667 33.3715 39.2239 33.3286 38.0167C33.3143 37.931 33.3143 37.8381 33.3143 37.7524C33.3143 36.4524 33.7143 35.581 34.5 35.131C35.2929 34.681 36.2501 34.781 37.3858 35.431C38.5144 36.081 39.4715 37.0952 40.2643 38.4595C40.3858 38.6738 40.5001 38.881 40.6001 39.0953C41.1644 40.231 41.45 41.3524 41.45 42.4453Z" fill="#ADADAD"/>
<path d="M22.4715 31.4881C22.4715 32.7881 22.0785 33.6595 21.2857 34.1095C20.5 34.5595 19.5357 34.4595 18.4071 33.8095C17.9785 33.5595 17.5715 33.2595 17.1858 32.9095C16.5643 32.3309 16.0143 31.6238 15.5285 30.7881C14.7357 29.4238 14.3429 28.0881 14.3429 26.7952C14.3429 25.6024 14.6785 24.7666 15.35 24.2952C15.4071 24.2452 15.4643 24.2095 15.5285 24.1738C16.3143 23.7238 17.2785 23.8238 18.4071 24.4738C19.5357 25.1309 20.5 26.1381 21.2857 27.5024C22.0785 28.8666 22.4715 30.1952 22.4715 31.4881Z" fill="#ADADAD"/>
<path d="M69.2857 50.9024C69.2857 55.2095 68.5786 58.8381 67.15 61.8024C65.7286 64.7666 63.8 66.9453 61.3571 68.3381L60.3072 68.8595L47.0714 75.4807C49.2214 74.2521 50.9714 72.4236 52.3286 69.9738C52.5143 69.6452 52.6928 69.3024 52.8643 68.9452C54.2928 65.9809 55 62.3524 55 58.0452C55 53.7381 54.2928 49.2881 52.8643 44.681C51.7357 41.031 50.2928 37.5096 48.5143 34.1024C48.5143 34.0953 48.5071 34.0881 48.5071 34.0809C48.05 33.2024 47.5714 32.3239 47.0714 31.4596C44.6357 27.2524 41.7643 23.3809 38.4643 19.8452C35.1715 16.3095 31.6428 13.4524 27.8928 11.2881C24.3 9.21671 20.9143 8.0095 17.7358 7.68093C17.6 7.6595 17.4571 7.65236 17.3214 7.63807C14.5 7.40236 11.9929 7.78093 9.80005 8.77379L23 2.17382C25.4429 0.780964 28.3071 0.223799 31.6071 0.495228C34.9071 0.766656 38.4285 1.98097 42.1785 4.14526C45.9285 6.30957 49.4572 9.16664 52.75 12.7024C56.05 16.2381 58.9214 20.1096 61.3571 24.3167C63.8 28.531 65.7286 32.9381 67.15 37.5381C68.5786 42.1453 69.2857 46.6024 69.2857 50.9024Z" fill="#C6C6C6"/>
<path d="M27.9642 47.1024L24.6071 48.7953L20.5072 50.8524L20.4357 50.8881C19.9715 51.131 19.5428 51.4381 19.15 51.8167C18.9285 52.0453 18.6643 52.1667 18.3715 52.181C18.0786 52.1953 17.75 52.0952 17.3929 51.8881C16.5786 51.4166 15.9928 50.6595 15.6285 49.6238C15.2642 48.5881 15.3357 47.7952 15.8285 47.2524C17.1428 45.6738 18.8714 44.8952 21.0142 44.9166C21.45 44.9166 21.8928 44.9524 22.3428 45.0166C24.1071 45.2595 25.95 45.9381 27.8928 47.0595C27.9142 47.0738 27.9428 47.0881 27.9642 47.1024Z" fill="#969696"/>
<path d="M40.0928 63.7095C39.8071 64.2166 39.3858 64.3809 38.8215 64.1952H38.8143C38.6643 64.1524 38.5 64.0738 38.3286 63.9738C37.9714 63.7666 37.6428 63.4881 37.35 63.1381C37.3214 63.1024 37.2928 63.0666 37.2643 63.0309C37.0071 62.7024 36.8 62.3309 36.6357 61.9095C35.6 59.7024 34.3071 57.7024 32.7714 55.9095C31.2357 54.1095 29.6143 52.7166 27.8928 51.7309C27.2286 51.3452 26.5858 51.0381 25.9501 50.8166C24.9358 50.4381 23.9572 50.2595 23.0143 50.2738C22.0858 50.2881 21.2501 50.4809 20.5072 50.8524L24.6072 48.7952L27.9643 47.1024C30.3286 48.4809 32.5786 50.3738 34.7072 52.7809C36.8501 55.2166 38.5786 57.9524 39.8929 60.9881C40.3858 62.1524 40.4571 63.0595 40.0928 63.7095Z" fill="#ADADAD"/>
</svg>
