<svg width="157" height="196" viewBox="0 0 157 196" fill="none" xmlns="http://www.w3.org/2000/svg">
<path d="M156.829 77.6199L150.197 43.361C149.866 41.7729 149.098 40.7605 147.876 40.3241C146.655 39.8704 145.276 40.0973 143.723 41.0048L120.773 54.2513L48.4501 95.9972C46.8968 96.8873 45.5181 98.266 44.2964 100.116C43.0922 101.948 42.3069 103.868 41.9753 105.841L40.2997 116.434L35.3434 147.761C35.2212 148.529 35.1687 149.227 35.1861 149.855C35.2385 151.443 35.7273 152.595 36.6698 153.363C37.9961 154.445 39.7063 154.375 41.818 153.154L42.9701 152.491V190.589C42.9701 192.736 43.6156 194.185 44.8896 194.9C46.1637 195.633 47.7346 195.459 49.6194 194.359L102.727 163.695C104.612 162.613 106.183 160.972 107.457 158.773C108.731 156.592 109.359 154.41 109.359 152.246V114.165L114.298 111.32L135.921 98.8245V136.923C135.921 139.07 136.567 140.518 137.824 141.251C139.098 141.967 140.686 141.792 142.553 140.71C144.438 139.611 146.026 137.97 147.3 135.789C148.557 133.59 149.203 131.408 149.203 129.261V91.1629L150.354 90.4997C152.466 89.2781 154.177 87.3758 155.503 84.7579C156.829 82.1575 157.283 79.7665 156.829 77.6199ZM96.0951 152.299L56.2513 175.301V144.829L67.8048 138.162L74.454 134.323L96.0951 121.827V152.299Z" fill="white"/>
<path d="M96.0958 152.299L56.2518 175.301V144.829L67.8053 138.163L72.9014 140.693L96.0958 152.299Z" fill="#EEECEA"/>
<path d="M96.0943 121.827V152.299L72.9 140.693L67.804 138.162L74.4533 134.323L96.0943 121.827Z" fill="#E3DEDA"/>
<path d="M149.203 22.5927C149.203 24.7568 148.557 26.9384 147.3 29.1374C146.026 31.3189 144.438 32.9595 142.553 34.059L139.203 35.9962L119.446 47.3926L49.6194 87.7076C47.7346 88.8071 46.1639 88.9816 44.8899 88.2486C43.6158 87.533 42.9701 86.0845 42.9701 83.9204C42.9701 81.7563 43.6158 79.5922 44.8899 77.3932C46.1639 75.1942 47.7346 73.5711 49.6194 72.4716L116.794 33.6925L125.066 28.9105L142.553 18.8229C144.246 17.8281 145.712 17.6014 146.916 18.09L147.3 18.2818C148.557 18.9974 149.203 20.4461 149.203 22.5927Z" fill="white"/>
<path d="M1.7644 135.911C2.16581 136.243 2.60212 136.452 3.07333 136.574L1.7644 135.911Z" fill="white"/>
<path d="M44.8898 194.9L10.369 177.64L9.98502 177.448C8.71099 176.732 8.06531 175.284 8.06531 173.137V139.07L21.3466 145.702L32.6208 151.339L36.6698 153.364C37.9962 154.446 39.7065 154.376 41.8182 153.154L42.9701 152.491V190.589C42.9701 192.736 43.6158 194.185 44.8898 194.9Z" fill="#E3DEDA"/>
<path d="M146.916 18.09C145.712 17.6013 144.246 17.8282 142.553 18.823L125.066 28.9105L116.794 33.6924L49.6194 72.4718C47.7346 73.5713 46.1639 75.1944 44.8898 77.3934C43.6158 79.5924 42.9701 81.7739 42.9701 83.9205C42.9701 86.0672 43.6158 87.533 44.8898 88.2486L19.0778 75.3512L10.369 70.9882L9.98502 70.7962C8.71099 70.0806 8.06531 68.6323 8.06531 66.4682C8.06531 64.3041 8.71099 62.14 9.98502 59.941C11.259 57.742 12.8298 56.1189 14.7147 55.0194L107.649 1.37066C109.533 0.271159 111.122 0.0966354 112.396 0.829635L146.916 18.09Z" fill="#EEECEA"/>
<path d="M137.824 141.252L109.359 127.028V114.165L114.298 111.321L135.922 98.8249V136.923C135.922 139.07 136.567 140.519 137.824 141.252Z" fill="#E3DEDA"/>
<path d="M147.876 40.3243C146.654 39.8706 145.275 40.0976 143.722 41.0051L120.772 54.2515L48.4496 95.9976C46.8963 96.8877 45.5176 98.2664 44.2959 100.116C43.0917 101.949 42.3064 103.869 41.9748 105.841L40.2993 116.434L35.3429 147.761C35.2207 148.529 35.1683 149.227 35.1858 149.856C35.2381 151.444 35.7268 152.596 36.6692 153.364L32.6203 151.339L21.3461 145.702L8.06481 139.07L3.10828 136.574H3.07345L1.76452 135.911C0.438139 134.847 0.00181249 132.979 0.438122 130.309L7.07001 88.3884C7.4016 86.4162 8.18699 84.4965 9.39121 82.664C10.6129 80.814 11.9916 79.4353 13.5449 78.5452L19.0772 75.3512L44.8893 88.2487C46.1633 88.9817 47.734 88.8072 49.6189 87.7077L119.446 47.3927L139.202 35.9963L147.876 40.3243Z" fill="#E3DEDA"/>
</svg>
