<svg width="409" height="75" viewBox="0 0 409 75" fill="none" xmlns="http://www.w3.org/2000/svg">
<path d="M25.5 59.9448L0 74.6673V45.2224L25.5 59.9448Z" fill="#FF7270"/>
<path d="M26.5 59.9448L52 74.6673L77.5 59.9448L52 45.2224L26.5 59.9448Z" fill="#FF7270"/>
<path d="M25.5 29.4448L0 44.1673V14.7224L23.5 1.15467C24.7376 0.440141 26.2624 0.440142 27.5 1.15467L77.5 30.0222L52 44.7446L25.5 29.4448Z" fill="#FF7270"/>
<path d="M407.413 53.7179H408.661V62.9999H403.045C397.351 62.9999 395.557 60.2699 395.635 56.4479C392.827 60.8939 388.771 63.4679 382.531 63.4679C373.873 63.4679 367.633 59.3339 367.633 51.6899C367.633 43.1879 374.029 38.3519 386.041 38.3519H393.997V36.4019C393.997 32.8139 391.423 30.4739 386.821 30.4739C382.531 30.4739 379.645 32.4239 379.177 35.3879H368.569C369.349 27.5879 376.525 22.4399 387.133 22.4399C398.365 22.4399 404.839 27.4319 404.839 37.0259V51.2219C404.839 53.3279 405.697 53.7179 407.413 53.7179ZM393.997 46.4639V45.6839H385.963C381.361 45.6839 378.709 47.5559 378.709 50.9099C378.709 53.7179 380.971 55.5119 384.637 55.5119C390.409 55.5119 393.919 51.9239 393.997 46.4639Z" fill="#FF7270"/>
<path d="M350.527 27.9V8.40002H361.525V63H351.931L350.839 57.462C348.187 60.894 344.287 63.468 338.515 63.468C327.751 63.468 319.873 55.59 319.873 42.876C319.873 30.474 327.751 22.44 338.437 22.44C343.975 22.44 347.953 24.624 350.527 27.9ZM340.933 54.498C346.939 54.498 350.683 49.818 350.683 43.032C350.683 36.168 346.939 31.41 340.933 31.41C334.927 31.41 331.105 36.09 331.105 42.954C331.105 49.818 334.927 54.498 340.933 54.498Z" fill="#FF7270"/>
<path d="M298.588 22.4399C307.246 22.4399 314.656 27.0419 314.656 40.7699V62.9999H303.658V41.8619C303.658 35.0759 301.084 31.4879 295.546 31.4879C289.852 31.4879 286.576 35.5439 286.576 42.4859V62.9999H275.578V22.9079H285.172L286.186 27.8999C288.76 24.7799 292.426 22.4399 298.588 22.4399Z" fill="#FF7270"/>
<path d="M250.068 63.4679C236.73 63.4679 228.696 55.4339 228.696 43.0319C228.696 30.5519 236.886 22.4399 249.288 22.4399C261.3 22.4399 269.412 29.9279 269.568 41.7059C269.568 42.8759 269.49 44.2019 269.256 45.4499H240.162V45.9959C240.396 51.6899 244.062 55.1219 249.6 55.1219C254.046 55.1219 257.166 53.1719 258.102 49.4279H268.944C267.696 57.2279 260.754 63.4679 250.068 63.4679ZM240.396 38.2739H258.492C257.712 33.3599 254.358 30.6299 249.366 30.6299C244.608 30.6299 241.02 33.5159 240.396 38.2739Z" fill="#FF7270"/>
<path d="M217.131 18.6181C213.543 18.6181 210.735 15.9661 210.735 12.4561C210.735 8.86807 213.543 6.21606 217.131 6.21606C220.719 6.21606 223.527 8.86807 223.527 12.4561C223.527 15.9661 220.719 18.6181 217.131 18.6181ZM211.593 63.0001V22.9081H222.669V63.0001H211.593Z" fill="#FF7270"/>
<path d="M186.067 51.534V32.19H179.437V22.908H186.067V11.676H197.065V22.908H206.269V32.19H197.065V49.74C197.065 52.548 198.157 53.718 201.043 53.718H206.503V63H197.533C189.889 63 186.067 59.178 186.067 51.534Z" fill="#FF7270"/>
<path d="M170.057 18.6181C166.469 18.6181 163.661 15.9661 163.661 12.4561C163.661 8.86807 166.469 6.21606 170.057 6.21606C173.645 6.21606 176.453 8.86807 176.453 12.4561C176.453 15.9661 173.645 18.6181 170.057 18.6181ZM164.519 63.0001V22.9081H175.595V63.0001H164.519Z" fill="#FF7270"/>
<path d="M142.792 22.4399C151.06 22.4399 157.612 27.1199 157.612 39.9899V62.9999H146.614V40.6139C146.614 34.6079 144.43 31.4879 139.672 31.4879C134.914 31.4879 131.716 34.9979 131.716 41.0819V62.9999H120.718V40.6139C120.718 34.6079 118.534 31.4879 113.698 31.4879C108.94 31.4879 105.82 35.1539 105.82 41.1599V62.9999H94.822V22.9079H104.416L105.43 27.8999C107.848 24.7799 111.358 22.5179 117.208 22.4399C122.122 22.3619 126.724 24.1559 129.22 29.2259C132.028 24.9359 136.708 22.4399 142.792 22.4399Z" fill="#FF7270"/>
</svg>
