<svg width="409" height="75" viewBox="0 0 409 75" fill="none" xmlns="http://www.w3.org/2000/svg">
<path d="M25.5 59.3261L0 74.0485V44.6036L25.5 59.3261Z" fill="white"/>
<path d="M26.5 59.3261L52 74.0485L77.5 59.3261L52 44.6036L26.5 59.3261Z" fill="white"/>
<path d="M25.5 28.8261L0 43.5485V14.1036L23.5 0.535898C24.7376 -0.178633 26.2624 -0.178632 27.5 0.535899L77.5 29.4034L52 44.1258L25.5 28.8261Z" fill="white"/>
<path d="M407.413 53.0992H408.661V62.3812H403.045C397.351 62.3812 395.557 59.6512 395.635 55.8292C392.827 60.2752 388.771 62.8492 382.531 62.8492C373.873 62.8492 367.633 58.7152 367.633 51.0712C367.633 42.5692 374.029 37.7332 386.041 37.7332H393.997V35.7832C393.997 32.1952 391.423 29.8552 386.821 29.8552C382.531 29.8552 379.645 31.8052 379.177 34.7692H368.569C369.349 26.9692 376.525 21.8212 387.133 21.8212C398.365 21.8212 404.839 26.8132 404.839 36.4072V50.6032C404.839 52.7092 405.697 53.0992 407.413 53.0992ZM393.997 45.8452V45.0652H385.963C381.361 45.0652 378.709 46.9372 378.709 50.2912C378.709 53.0992 380.971 54.8932 384.637 54.8932C390.409 54.8932 393.919 51.3052 393.997 45.8452Z" fill="white"/>
<path d="M350.527 27.2813V7.78125H361.525V62.3813H351.931L350.839 56.8433C348.187 60.2753 344.287 62.8493 338.515 62.8493C327.751 62.8493 319.873 54.9713 319.873 42.2573C319.873 29.8553 327.751 21.8213 338.437 21.8213C343.975 21.8213 347.953 24.0053 350.527 27.2813ZM340.933 53.8793C346.939 53.8793 350.683 49.1993 350.683 42.4133C350.683 35.5493 346.939 30.7913 340.933 30.7913C334.927 30.7913 331.105 35.4712 331.105 42.3353C331.105 49.1992 334.927 53.8793 340.933 53.8793Z" fill="white"/>
<path d="M298.588 21.8212C307.246 21.8212 314.656 26.4232 314.656 40.1512V62.3812H303.658V41.2432C303.658 34.4572 301.084 30.8692 295.546 30.8692C289.852 30.8692 286.576 34.9252 286.576 41.8672V62.3812H275.578V22.2892H285.172L286.186 27.2812C288.76 24.1612 292.426 21.8212 298.588 21.8212Z" fill="white"/>
<path d="M250.068 62.8492C236.73 62.8492 228.696 54.8152 228.696 42.4132C228.696 29.9332 236.886 21.8212 249.288 21.8212C261.3 21.8212 269.412 29.3092 269.568 41.0872C269.568 42.2572 269.49 43.5832 269.256 44.8312H240.162V45.3772C240.396 51.0712 244.062 54.5032 249.6 54.5032C254.046 54.5032 257.166 52.5532 258.102 48.8092H268.944C267.696 56.6092 260.754 62.8492 250.068 62.8492ZM240.396 37.6552H258.492C257.712 32.7412 254.358 30.0112 249.366 30.0112C244.608 30.0112 241.02 32.8972 240.396 37.6552Z" fill="white"/>
<path d="M217.131 17.9992C213.543 17.9992 210.735 15.3472 210.735 11.8372C210.735 8.24923 213.543 5.59723 217.131 5.59723C220.719 5.59723 223.527 8.24923 223.527 11.8372C223.527 15.3472 220.719 17.9992 217.131 17.9992ZM211.593 62.3812V22.2892H222.669V62.3812H211.593Z" fill="white"/>
<path d="M186.067 50.9153V31.5713H179.437V22.2893H186.067V11.0573H197.065V22.2893H206.269V31.5713H197.065V49.1213C197.065 51.9293 198.157 53.0993 201.043 53.0993H206.503V62.3813H197.533C189.889 62.3813 186.067 58.5593 186.067 50.9153Z" fill="white"/>
<path d="M170.057 17.9992C166.469 17.9992 163.661 15.3472 163.661 11.8372C163.661 8.24923 166.469 5.59723 170.057 5.59723C173.645 5.59723 176.453 8.24923 176.453 11.8372C176.453 15.3472 173.645 17.9992 170.057 17.9992ZM164.519 62.3812V22.2892H175.595V62.3812H164.519Z" fill="white"/>
<path d="M142.792 21.8212C151.06 21.8212 157.612 26.5012 157.612 39.3712V62.3812H146.614V39.9952C146.614 33.9892 144.43 30.8692 139.672 30.8692C134.914 30.8692 131.716 34.3792 131.716 40.4632V62.3812H120.718V39.9952C120.718 33.9892 118.534 30.8692 113.698 30.8692C108.94 30.8692 105.82 34.5352 105.82 40.5412V62.3812H94.822V22.2892H104.416L105.43 27.2812C107.848 24.1612 111.358 21.8992 117.208 21.8212C122.122 21.7432 126.724 23.5372 129.22 28.6072C132.028 24.3172 136.708 21.8212 142.792 21.8212Z" fill="white"/>
</svg>
