<svg width="191" height="195" viewBox="0 0 191 195" fill="none" xmlns="http://www.w3.org/2000/svg">
<path d="M113.399 142.572C113.399 145.199 112.632 147.843 111.082 150.519C109.532 153.194 107.606 155.185 105.322 156.507L40.7094 193.805C38.4088 195.127 36.4998 195.355 34.9497 194.474C33.3997 193.577 32.6328 191.831 32.6328 189.204C32.6328 186.577 33.3997 183.934 34.9497 181.258C36.4998 178.582 38.4088 176.592 40.7094 175.27L105.322 137.971C107.378 136.78 109.14 136.47 110.609 137.074L111.082 137.302C112.632 138.183 113.399 139.946 113.399 142.572Z" fill="#C6C6C6"/>
<path d="M73.0157 119.55C73.0157 120.219 72.9668 120.888 72.8689 121.557C72.5752 123.515 71.841 125.506 70.6988 127.496C69.1488 130.156 67.2234 132.163 64.9391 133.485L40.7094 147.468C38.4088 148.789 36.4998 149.001 34.9497 148.12C33.7913 147.468 33.0734 146.326 32.7797 144.694C32.6818 144.139 32.6328 143.535 32.6328 142.866C32.6328 140.24 33.3997 137.596 34.9497 134.92C36.4998 132.245 38.4088 130.254 40.7094 128.932L64.9391 114.949C66.995 113.758 68.7572 113.448 70.2256 114.052L70.6988 114.28C72.2325 115.161 73.0157 116.924 73.0157 119.55Z" fill="#C6C6C6"/>
<path d="M110.608 137.074C109.14 136.47 107.378 136.78 105.322 137.971L40.7093 175.27C38.4087 176.592 36.4997 178.582 34.9496 181.258C33.3996 183.934 32.6327 186.577 32.6327 189.204C32.6327 191.831 33.3996 193.577 34.9496 194.474L2.79012 178.386L2.31698 178.158C0.766932 177.26 0 175.515 0 172.888C0 170.261 0.766932 167.618 2.31698 164.942C3.86703 162.266 5.776 160.275 8.0766 158.954L30.6095 145.95L34.9496 148.12C36.4997 149.001 38.4087 148.789 40.7093 147.467L64.939 133.484C67.2233 132.163 69.1486 130.156 70.6987 127.496C71.8408 125.506 72.5751 123.515 72.8687 121.557C75.0715 120.317 76.9478 120.121 78.4489 120.986L110.608 137.074Z" fill="#E3DEDA"/>
<path d="M70.2255 67.7135C68.757 67.1097 66.9949 67.4034 64.939 68.5945L56.5687 73.4242L40.7093 82.5939C38.4087 83.9156 36.4997 85.9062 34.9496 88.582C33.3996 91.2416 32.6327 93.9012 32.6327 96.5281C32.6327 97.1971 32.6816 97.8171 32.7795 98.3718C33.0732 99.9871 33.7911 101.129 34.9496 101.782L30.6095 99.6119L2.79012 85.694L2.31698 85.4656C0.766933 84.5845 0 82.8387 0 80.2118C0 77.5848 0.766933 74.9253 2.31698 72.2657C3.86703 69.5898 5.776 67.5992 8.0766 66.2776L32.3064 52.2782C34.5906 50.9566 36.516 50.7445 38.066 51.6256L58.0372 61.6112L70.2255 67.7135Z" fill="#E3DEDA"/>
<path d="M73.0157 73.2121C73.0157 75.8227 72.2325 78.4822 70.6988 81.1418C69.1488 83.8177 67.2234 85.8083 64.9391 87.1299L59.0816 90.5074L42.4226 100.134L40.7094 101.129C40.5462 101.227 40.3831 101.309 40.2362 101.39C38.1477 102.467 36.3856 102.598 34.9497 101.782C33.7913 101.129 33.0734 99.9872 32.7797 98.3718C32.6818 97.8171 32.6328 97.1971 32.6328 96.5281C32.6328 93.9012 33.3997 91.2416 34.9497 88.582C36.4998 85.9062 38.4088 83.9156 40.7094 82.5939L56.5689 73.4242L64.9391 68.5945C66.995 67.4034 68.7572 67.1098 70.2256 67.7135L70.6988 67.9419C72.2325 68.823 73.0157 70.5851 73.0157 73.2121Z" fill="#C6C6C6"/>
<path d="M188.519 89.0061L163.066 74.5009C165.366 69.4755 167.079 64.4337 168.221 59.3594C169.364 54.3013 169.935 49.5369 169.935 45.0499C169.935 32.2253 166.002 23.5776 158.122 19.0907L156.196 18.128C150.42 15.5337 143.779 15.7295 136.307 18.7154C134.136 19.5801 131.885 20.6897 129.552 22.0276C126.093 24.0182 122.797 26.3514 119.664 29.0436C112.648 35.0154 106.431 42.7004 100.982 52.0823C94.8957 62.5573 91.1756 72.804 89.7887 82.8222C89.3808 85.7918 89.1687 88.7451 89.1687 91.682C89.1687 95.3695 89.495 98.7306 90.164 101.717C91.763 109.14 95.3689 114.443 100.982 117.658C108.863 122.145 118.375 121.166 129.552 114.704C133.451 112.453 137.334 109.565 141.169 106.04C144.628 102.842 147.826 99.2854 150.795 95.3042C151.122 94.88 151.448 94.4395 151.758 93.9989L177.212 108.504C178.697 109.353 180.573 109.124 182.857 107.803C185.158 106.481 187.034 104.539 188.519 101.978C190.004 99.4323 190.738 96.838 190.738 94.211C190.738 91.5841 190.004 89.8546 188.519 89.0061ZM150.763 69.7692C149.719 72.5429 148.364 75.333 146.716 78.1558C144.318 82.2838 141.675 85.8571 138.77 88.8756C135.931 91.8288 132.88 94.26 129.552 96.169C122.829 100.052 117.102 100.656 112.387 97.9638C109.809 96.4953 107.932 94.2763 106.774 91.2904C105.811 88.8266 105.322 85.8571 105.322 82.3491C105.322 78.8411 105.779 75.4473 106.725 71.9392C107.884 67.5502 109.76 63.0958 112.387 58.5762C114.622 54.7418 117.07 51.397 119.746 48.509C122.715 45.262 125.995 42.6188 129.552 40.5629C132.048 39.1271 134.398 38.1318 136.617 37.6097C140.386 36.6797 143.747 37.0712 146.716 38.7681C151.432 41.444 153.781 46.6489 153.781 54.3829C153.781 59.4246 152.786 64.5479 150.763 69.7692Z" fill="#C6C6C6"/>
<path d="M153.782 54.3828C153.782 59.4246 152.786 64.5479 150.763 69.7691C149.719 72.5429 148.364 75.333 146.717 78.1557C144.318 82.2838 141.675 85.857 138.77 88.8756C135.931 91.8288 132.88 94.2599 129.552 96.1689C122.829 100.052 117.102 100.656 112.387 97.9637C109.809 96.4953 107.933 94.2763 106.774 91.2904C105.812 88.8266 105.322 85.857 105.322 82.349C105.322 78.841 105.779 75.4472 106.725 71.9392C109.401 69.0512 111.849 65.6901 114.084 61.8394C116.695 57.3361 118.587 52.898 119.746 48.509C122.715 45.262 125.995 42.6188 129.552 40.5629C132.048 39.1271 134.398 38.1318 136.617 37.6096C140.386 36.6796 143.747 37.0712 146.717 38.7681C151.432 41.444 153.782 46.6489 153.782 54.3828Z" fill="#ADADAD"/>
<path d="M177.212 108.504L150.795 95.3042C151.122 94.88 151.448 94.4394 151.758 93.9989L177.212 108.504Z" fill="#ADADAD"/>
<path d="M156.197 18.128C150.421 15.5337 143.78 15.7295 136.307 18.7154C134.137 19.5801 131.885 20.6896 129.552 22.0276C126.093 24.0182 122.797 26.3514 119.664 29.0436C112.648 35.0154 106.432 42.7004 100.982 52.0822C94.8962 62.5573 91.1761 72.804 89.7892 82.8222C89.3813 85.7918 89.1692 88.745 89.1692 91.682C89.1692 95.3695 89.4955 98.7306 90.1645 101.717C91.7635 109.14 95.3694 114.443 100.982 117.658L70.2747 102.304L68.3496 101.341C64.1236 98.9264 61.0235 95.3205 59.0819 90.5072L64.9395 87.1297C67.2237 85.8081 69.1491 83.8175 70.6991 81.1416C72.2328 78.4821 73.0159 75.8225 73.0159 73.2119C73.0159 70.6013 72.2328 68.8228 70.6991 67.9417L70.2259 67.7133L58.0375 61.611C59.816 53.1591 63.2589 44.5441 68.3496 35.7659C76.2303 22.1744 85.7428 12.1562 96.9195 5.7113C108.096 -0.749969 117.625 -1.72895 125.489 2.77436L156.197 18.128Z" fill="#E3DEDA"/>
<path d="M70.2255 114.052C68.757 113.448 66.9949 113.758 64.939 114.949L40.7093 128.932C38.4087 130.254 36.4997 132.244 34.9496 134.92C33.3996 137.596 32.6327 140.239 32.6327 142.866C32.6327 143.535 32.6816 144.139 32.7795 144.694C33.0732 146.325 33.7911 147.467 34.9496 148.12L30.6095 145.95L2.79012 132.032L2.31698 131.804C0.766933 130.923 0 129.177 0 126.55C0 123.923 0.766933 121.28 2.31698 118.604C3.86703 115.928 5.776 113.937 8.0766 112.616L30.6095 99.6117L34.9496 101.782C36.3854 102.598 38.1476 102.467 40.2361 101.39C40.3829 101.309 40.5461 101.227 40.7093 101.129L42.4225 100.134L70.2255 114.052Z" fill="#E3DEDA"/>
</svg>
